<svg xmlns="http://www.w3.org/2000/svg" viewBox="0 0 98 66.66"><defs><style>.cls-1{fill:#0030d5;}</style></defs><g><path class="cls-1" d="M95.01,0c.96,0,1.37,1.22.61,1.8l-35.7,27.2-5.78,4.4-4.52,3.45c-.36.27-.85.27-1.21,0l-4.52-3.45-5.78-4.4L2.39,1.8c-.76-.58-.35-1.8.61-1.8h92.02Z"/><path class="cls-1" d="M31.27,34.19L1.61,56.79c-.66.5-1.61.03-1.61-.8V10.8c0-.83.95-1.3,1.61-.8l29.66,22.59c.53.4.53,1.19,0,1.59Z" /><path class="cls-1" d="M60.52,38.26l34.93,26.6c.76.58.35,1.8-.61,1.8H3.16c-.96,0-1.37-1.22-.61-1.8l34.93-26.6c.36-.27.85-.27,1.21,0l8.18,6.23c.63.48,1.37.72,2.12.72s1.49-.24,2.12-.72l8.18-6.23c.36-.27.85-.27,1.21,0Z" /><path class="cls-1" d="M98,10.8v45.19c0,.83-.95,1.3-1.61.8l-29.66-22.6c-.53-.4-.53-1.19,0-1.59l29.66-22.59c.66-.5,1.61-.03,1.61.8Z"/></g></svg>