<?xml version="1.0" encoding="UTF-8"?><svg id="_레이어_2" xmlns="http://www.w3.org/2000/svg" viewBox="0 0 48.98 48.98"><defs><style>.cls-1{fill:#fff;stroke-width:0px;}</style></defs><g id="_레이어_1-2"><path class="cls-1" d="M15.33,13.41c.67-1.17,2.15-1.6,3.34-.97,1.19.63,1.67,2.1,1.08,3.31-2.11,4.31-3.55,9.41-3.08,10.81.01,0,.03,0,.04,0,2.83,0,8.44-7.54,11.9-14.58.6-1.21,2.04-1.73,3.27-1.18,1.23.56,1.8,1.98,1.28,3.23-.48,1.18-1.57,5-.32,6.94.19.29.71,1.07,2.54,1.37-.12-1.3.78-2.5,2.09-2.7,1.36-.21,2.62.71,2.85,2.06,2.61-1.03,5.28-3.02,7.26-5.36C44.22,6.82,35.15,0,24.49,0,10.96,0,0,10.96,0,24.49c0,2.55.39,5.02,1.12,7.33,7.26-6.31,14.13-18.27,14.21-18.41Z"/><path class="cls-1" d="M40.19,26.96c-.37,2.13-1.19,4.61-2.95,6.83-2.72,3.45-6.91,5.42-12.46,5.86-.07,0-.13,0-.2,0-1.29,0-2.39-.99-2.49-2.3-.11-1.38.92-2.58,2.29-2.69,4.11-.33,7.11-1.66,8.93-3.97.84-1.06,1.36-2.24,1.67-3.37-3.57-.48-5.43-2.21-6.36-3.67-.2-.32-.38-.64-.53-.98-3.12,4.45-7.26,8.88-11.39,8.88-1.84,0-3.34-.79-4.23-2.21-.33-.53-.56-1.13-.69-1.79-2.55,3.27-5.52,6.58-8.6,9.03,4.21,7.4,12.17,12.4,21.3,12.4,13.53,0,24.49-10.96,24.49-24.49,0-.8-.04-1.59-.12-2.37-2.6,2.29-5.66,4.04-8.67,4.84Z"/></g></svg>